<?xml version="1.0" standalone="no"?>
<!DOCTYPE svg PUBLIC "-//W3C//DTD SVG 20010904//EN"
 "http://www.w3.org/TR/2001/REC-SVG-20010904/DTD/svg10.dtd">
<svg version="1.0" xmlns="http://www.w3.org/2000/svg"
 width="900.000000pt" height="900.000000pt" viewBox="0 0 900.000000 900.000000"
 preserveAspectRatio="xMidYMid meet">

<g transform="translate(0.000000,900.000000) scale(0.100000,-0.100000)"
fill="#000000" stroke="none">
<path d="M3994 8824 c18 -46 28 -123 22 -166 -15 -97 -127 -223 -257 -289 -32
-16 -138 -55 -236 -88 -98 -32 -189 -63 -203 -69 -14 -6 -72 -25 -130 -43
-186 -57 -406 -178 -550 -300 -24 -21 -46 -36 -48 -34 -8 7 60 106 96 141 39
38 28 43 -33 15 -123 -56 -259 -174 -339 -294 -52 -78 -116 -203 -116 -226 0
-20 -16 -11 -60 35 -64 65 -179 151 -292 217 -53 32 -100 57 -104 57 -4 0 6
-15 22 -32 34 -37 81 -98 110 -143 16 -25 10 -22 -46 22 -81 63 -253 154 -344
182 -39 12 -94 21 -130 20 l-61 0 75 -27 c95 -35 177 -89 260 -172 70 -70 137
-163 121 -168 -17 -6 -93 38 -249 145 -208 142 -327 194 -552 239 -134 27
-388 25 -510 -4 -52 -13 -108 -29 -125 -36 -27 -12 -21 -14 70 -14 119 0 176
-13 272 -59 137 -66 248 -194 330 -383 56 -127 65 -174 17 -81 -22 40 -68 108
-104 150 -64 74 -194 191 -212 191 -6 0 26 -35 70 -78 67 -65 87 -94 125 -173
58 -120 94 -248 113 -401 44 -361 138 -619 276 -762 32 -33 56 -61 55 -62 -2
-2 -43 3 -92 11 -139 23 -454 20 -618 -5 -233 -36 -449 -96 -569 -156 l-48
-24 0 -325 0 -325 33 -1 32 0 -32 -16 -33 -17 0 -114 c0 -105 1 -114 17 -107
78 30 142 37 307 32 207 -5 316 -30 473 -108 116 -57 142 -79 96 -79 -48 0
-281 -46 -368 -73 -175 -54 -318 -129 -467 -244 l-58 -44 0 -431 0 -432 28 26
c28 26 142 107 179 126 19 10 17 4 -13 -46 -35 -57 -64 -138 -64 -175 0 -16 5
-13 23 14 29 44 136 98 218 109 35 5 108 5 173 0 61 -6 117 -10 124 -10 6 0
12 -4 12 -10 0 -5 -14 -10 -32 -10 -47 0 -231 -66 -325 -116 -101 -53 -184
-113 -263 -188 l-60 -57 0 -377 0 -376 33 30 c100 93 268 182 437 233 115 34
330 64 330 45 0 -3 -22 -31 -48 -62 -94 -109 -144 -198 -207 -367 -84 -225
-104 -443 -60 -662 42 -213 108 -352 234 -493 l41 -45 -16 38 c-8 22 -14 58
-12 80 l3 42 23 -67 c31 -90 160 -299 242 -391 4 -4 -4 23 -16 60 -69 202 9
502 174 669 58 59 272 228 279 221 1 -2 -6 -39 -17 -82 -99 -410 -74 -682 84
-929 97 -151 293 -314 451 -374 28 -11 59 -23 70 -28 14 -5 9 5 -17 34 -65 72
-95 153 -134 367 -19 103 -25 304 -11 340 7 17 12 13 33 -30 13 -27 49 -77 79
-110 l55 -60 -26 65 c-29 70 -46 231 -27 243 6 4 13 -8 16 -27 6 -38 48 -127
77 -166 18 -24 18 -23 4 30 -32 123 -12 227 66 342 82 123 169 195 380 313 58
32 137 79 175 104 83 53 205 173 224 218 7 18 17 31 21 28 5 -3 25 -35 45 -73
164 -299 434 -508 787 -608 165 -46 329 -64 596 -64 133 0 242 4 242 9 0 4
-19 16 -43 25 -45 17 -127 72 -127 85 0 5 26 11 58 14 31 4 100 18 152 32 281
76 323 85 407 85 172 0 365 -79 480 -197 l43 -45 0 31 c0 47 -46 169 -87 231
-73 111 -205 222 -373 313 -36 19 -141 65 -235 102 -229 90 -353 152 -457 230
-124 91 -216 216 -217 294 -1 23 37 77 106 151 36 39 42 56 16 45 -41 -17
-150 -36 -177 -30 -68 13 -84 69 -46 165 31 79 5 58 -41 -32 -49 -98 -66 -124
-135 -204 -90 -104 -224 -195 -374 -254 -47 -18 -117 -48 -157 -66 -94 -43
-119 -49 -139 -33 -14 11 -18 10 -30 -6 -8 -10 -14 -34 -14 -52 0 -37 -6 -41
-27 -15 -13 15 -14 14 -9 -17 8 -44 26 -63 99 -108 l59 -36 71 17 c40 9 113
23 162 31 262 43 303 65 437 230 50 60 93 111 97 113 4 1 15 -25 24 -58 39
-139 150 -355 227 -443 22 -25 40 -48 40 -51 0 -3 -85 -6 -188 -6 -195 0 -275
12 -315 48 -9 8 -20 13 -22 10 -12 -12 106 -105 184 -147 45 -23 80 -45 77
-48 -3 -3 -26 0 -53 6 -26 6 -104 18 -173 26 -326 41 -492 85 -684 182 -88 44
-218 135 -264 186 l-24 25 129 66 c151 77 217 119 378 239 117 88 350 276 430
347 95 85 135 123 132 127 -4 3 -62 -21 -87 -37 -23 -15 -262 -126 -343 -160
-119 -49 -199 -56 -243 -19 -20 17 -17 80 7 136 32 73 89 252 89 280 0 3 -21
-19 -47 -48 -69 -79 -129 -135 -213 -198 -153 -116 -486 -305 -675 -384 -102
-42 -113 -40 -30 6 184 100 265 166 359 292 49 65 86 125 86 141 0 3 -26 -18
-57 -47 -186 -169 -393 -260 -663 -289 -57 -6 -108 -13 -111 -16 -4 -2 -108
-13 -231 -24 -222 -20 -317 -39 -373 -76 -14 -9 -28 -14 -31 -11 -8 7 89 83
132 103 19 9 33 19 30 21 -9 9 -158 -36 -210 -65 -62 -33 -69 -25 -28 29 59
77 163 145 292 190 94 32 98 43 13 35 -99 -10 -200 -39 -286 -84 -40 -20 -76
-39 -81 -41 -5 -2 15 32 45 75 56 82 204 236 392 408 59 54 106 100 104 102
-2 2 -46 -3 -98 -12 -88 -14 -138 -29 -232 -69 -36 -15 -38 -15 -28 2 6 10 41
48 79 85 66 65 79 83 37 54 -11 -7 -87 -48 -170 -91 -186 -96 -219 -115 -323
-186 l-83 -57 -75 24 c-42 14 -102 25 -135 26 l-59 2 27 28 c15 16 44 36 65
45 21 9 38 20 38 23 0 13 -102 30 -175 30 -40 0 -91 -7 -114 -15 -22 -8 -41
-11 -41 -7 0 9 118 99 170 130 119 70 347 107 605 98 94 -3 180 -8 193 -12 13
-4 22 -2 22 5 0 6 -5 11 -11 11 -16 0 -110 42 -105 47 2 3 42 -3 88 -13 182
-38 408 -17 541 51 84 43 82 54 -7 36 -70 -14 -78 -14 -170 7 -133 31 -187 53
-446 181 -224 110 -308 141 -385 141 -29 0 -36 3 -25 10 20 13 185 13 233 -1
60 -16 62 -7 5 34 -86 61 -179 102 -259 116 -143 24 -140 31 11 26 170 -4 275
-32 373 -98 55 -37 37 -9 -40 63 -163 152 -320 233 -516 266 -120 20 -271 15
-369 -12 -87 -23 -100 -14 -68 50 45 95 218 220 384 279 198 70 478 103 657
78 181 -26 528 -125 1149 -326 154 -50 322 -98 380 -110 19 -4 -58 40 -171 98
-114 58 -233 122 -265 142 -107 68 -211 164 -352 323 -272 307 -367 376 -667
482 -66 23 -127 45 -135 48 -36 14 59 12 133 -3 107 -21 286 -73 315 -91 45
-29 20 4 -40 53 -89 71 -143 106 -234 151 -213 108 -364 130 -659 97 -196 -21
-355 -29 -355 -18 0 5 12 15 26 21 30 14 131 90 274 206 193 156 321 196 635
196 147 0 235 -15 482 -81 84 -22 282 -98 365 -140 32 -16 58 -25 58 -20 0 16
-87 125 -141 177 -30 28 -119 107 -199 175 -190 163 -305 277 -368 368 -55 79
-67 108 -30 74 57 -52 84 -58 241 -57 90 0 152 5 158 11 8 8 -5 13 -43 18 -89
12 -203 53 -270 97 -84 57 -199 172 -226 229 -31 65 -30 132 4 166 25 25 29
25 107 20 88 -6 156 -27 282 -87 133 -64 227 -129 389 -270 49 -43 209 -240
338 -416 187 -254 388 -556 707 -1062 117 -185 261 -402 267 -402 3 0 -1 11
-9 24 -61 92 -402 710 -547 991 -46 88 -86 165 -90 170 -16 21 -156 340 -323
735 -17 41 -58 129 -90 195 l-59 119 18 31 c32 55 106 150 148 188 22 21 88
70 146 108 58 39 127 89 153 111 27 22 50 39 52 36 2 -2 -23 -40 -55 -85 -122
-169 -180 -295 -180 -387 l0 -51 27 35 c39 50 99 105 162 148 84 57 88 58 60
21 -121 -159 -136 -420 -45 -771 37 -141 75 -268 89 -292 12 -20 12 -20 15 6
2 15 -4 75 -12 133 -29 193 -14 465 34 616 63 196 233 372 587 605 213 141
254 175 327 266 139 173 206 357 206 564 0 185 -44 307 -152 421 -39 41 -68
67 -64 57z m-1171 -6432 c-132 -119 -174 -154 -227 -191 -45 -31 -54 -41 -37
-41 21 0 176 49 281 89 51 20 56 20 68 4 6 -9 12 -23 12 -31 0 -43 -202 -173
-327 -212 -36 -11 -117 -27 -181 -35 -146 -19 -238 -41 -279 -65 -40 -24 -43
-8 -5 27 39 36 92 61 169 79 37 9 70 17 72 20 10 10 -147 74 -181 74 -48 0
-139 -31 -191 -66 -21 -14 -41 -24 -43 -22 -2 3 9 19 24 37 23 28 41 35 127
56 287 68 498 153 672 269 82 56 103 59 46 8z"/>
<path d="M4375 7679 c-180 -10 -329 -42 -460 -96 -63 -26 -217 -114 -211 -120
2 -2 50 9 107 26 115 32 212 52 366 76 93 14 112 14 210 -1 104 -15 203 -47
203 -65 0 -5 -22 -9 -49 -9 -67 0 -213 -27 -258 -47 -56 -26 -124 -73 -118
-82 2 -5 20 -12 39 -15 105 -20 95 -151 -30 -357 -45 -74 -105 -156 -230 -314
-66 -83 -144 -239 -175 -350 -19 -66 -23 -104 -23 -215 0 -150 13 -224 70
-400 32 -95 73 -189 60 -135 -48 201 -54 409 -17 569 46 196 133 355 283 518
110 119 291 253 426 315 228 106 519 112 782 18 96 -35 178 -77 219 -111 17
-14 34 -24 37 -21 18 17 -91 174 -168 241 -29 25 -47 46 -40 46 36 0 185 -47
242 -75 130 -66 295 -233 348 -353 15 -34 16 -35 20 -13 6 40 -27 150 -73 238
-114 217 -333 432 -579 568 -156 85 -397 146 -636 160 -175 11 -228 11 -345 4z"/>
<path d="M3670 7449 c0 -5 5 -7 10 -4 6 3 10 8 10 11 0 2 -4 4 -10 4 -5 0 -10
-5 -10 -11z"/>
<path d="M8299 6141 c-97 -62 -146 -151 -156 -282 -3 -44 -6 -79 -7 -79 -1 0
-44 9 -96 20 -188 39 -417 20 -690 -56 -119 -34 -276 -87 -285 -96 -7 -7 -2
-9 15 -5 166 36 241 49 325 59 135 15 412 4 540 -21 103 -20 215 -62 215 -80
0 -6 4 -11 9 -11 5 0 11 24 15 53 11 84 27 125 63 162 46 47 103 75 154 75 40
0 46 -4 154 -117 62 -65 116 -115 119 -112 3 3 -19 43 -49 88 -64 95 -62 111
13 111 85 0 136 -57 181 -202 23 -76 53 -139 74 -157 12 -9 11 2 -4 61 -22 81
-27 256 -9 302 17 45 12 76 -18 106 -51 50 -165 52 -224 2 -17 -14 -44 -44
-59 -66 l-29 -39 -15 35 c-16 41 -42 135 -50 192 -14 87 -99 113 -186 57z"/>
<path d="M8816 5454 c110 -107 142 -149 165 -217 l18 -52 1 43 c0 33 -8 55
-31 89 -40 57 -167 182 -211 207 -21 12 -2 -12 58 -70z"/>
<path d="M6415 5411 c-88 -35 -266 -116 -325 -149 -25 -14 -65 -36 -90 -49
-196 -107 -453 -290 -697 -495 -72 -62 -173 -135 -224 -165 l-93 -53 53 0 c61
0 195 42 304 95 57 28 99 61 197 156 169 164 312 277 545 434 28 18 127 79
220 134 94 55 177 105 185 110 28 18 -5 10 -75 -18z"/>
<path d="M8025 5279 c-149 -87 -198 -151 -215 -281 -12 -92 -12 -108 -2 -108
5 0 14 11 21 24 16 29 80 66 114 66 22 0 27 -6 33 -37 10 -58 43 -120 78 -150
l31 -26 6 37 c7 46 36 76 99 106 28 13 50 28 50 33 0 6 -30 8 -74 5 -63 -4
-75 -2 -85 13 -17 28 -13 83 9 141 11 29 20 54 20 56 0 2 -20 -9 -44 -23 -24
-14 -47 -22 -50 -17 -11 18 22 101 59 152 20 27 33 50 28 50 -4 0 -40 -18 -78
-41z"/>
<path d="M8690 5256 c0 -2 7 -17 15 -32 11 -22 14 -46 9 -95 l-6 -65 63 4 c35
2 66 6 67 7 4 3 -14 29 -96 140 -28 38 -52 57 -52 41z"/>
<path d="M7196 5170 c12 -65 66 -225 109 -320 24 -52 48 -113 55 -134 17 -54
18 -164 1 -204 -38 -90 31 -8 114 135 52 90 56 121 10 74 -17 -17 -32 -31 -35
-31 -3 0 -6 14 -7 31 -4 49 -54 146 -123 238 -38 49 -78 118 -97 165 -20 48
-31 67 -27 46z"/>
<path d="M4214 4838 c39 -89 52 -153 37 -182 -30 -55 -89 -59 -191 -11 l-75
35 45 -40 c165 -149 360 -220 560 -205 111 9 240 27 240 35 0 4 -39 13 -87 20
-94 14 -213 57 -278 101 -62 42 -152 136 -212 222 -30 42 -56 77 -58 77 -2 0
6 -24 19 -52z"/>
<path d="M8310 4832 c0 -5 23 -24 52 -42 71 -47 243 -213 290 -283 21 -31 50
-64 64 -73 23 -16 29 -16 85 1 70 22 80 31 40 40 -93 20 -168 116 -158 201 4
38 2 44 -14 44 -12 0 -24 -13 -33 -35 -8 -19 -19 -35 -25 -35 -5 0 -36 23 -68
50 -57 50 -233 149 -233 132z"/>
<path d="M8760 4755 c0 -2 23 -16 50 -30 63 -32 170 -138 170 -169 0 -8 5 -18
10 -21 6 -4 10 14 10 48 0 54 0 55 -53 94 -67 51 -129 83 -162 83 -14 0 -25
-2 -25 -5z"/>
<path d="M8945 4460 c-3 -5 -3 -10 2 -10 4 0 18 -3 31 -6 16 -5 22 -2 22 10 0
18 -45 23 -55 6z"/>
<path d="M6645 4411 c-224 -68 -385 -162 -536 -313 -67 -68 -122 -138 -114
-146 3 -3 22 8 43 25 61 49 232 148 312 180 135 55 179 66 277 67 l93 1 0 35
c0 29 12 61 68 173 7 14 -54 5 -143 -22z"/>
<path d="M4460 4223 c-248 -108 -480 -183 -775 -248 -245 -55 -698 -169 -794
-201 -29 -10 -4 -12 34 -4 82 19 255 40 406 50 277 17 497 60 651 126 77 33
298 142 369 182 137 77 255 145 258 148 15 14 -40 -5 -149 -53z"/>
<path d="M7571 4171 c38 -61 37 -105 -4 -135 -45 -33 -156 -26 -352 22 -88 22
-161 39 -163 38 -6 -7 190 -115 234 -129 52 -16 111 -30 434 -102 394 -88 593
-144 683 -193 27 -14 99 -73 160 -130 88 -81 129 -112 193 -142 48 -23 94 -54
112 -75 17 -19 34 -35 37 -35 2 0 2 21 -1 48 l-6 47 21 -25 c12 -14 24 -36 27
-48 11 -40 24 -3 17 47 -7 52 11 50 26 -2 8 -27 9 -19 10 47 1 100 -22 153
-86 199 -24 18 -94 71 -154 119 -61 48 -130 100 -154 115 -25 16 -44 32 -45
36 0 10 201 -1 263 -15 26 -5 77 -20 112 -33 l65 -22 0 118 0 117 -47 16
c-109 35 -180 46 -318 46 -137 0 -486 14 -655 25 -122 9 -92 -11 45 -29 207
-27 305 -60 305 -101 0 -29 -37 -36 -100 -20 -92 24 -364 119 -405 142 -11 6
-73 27 -137 47 -64 20 -120 41 -123 46 -3 6 -10 10 -15 10 -5 0 4 -22 21 -49z"/>
<path d="M5071 3964 c0 -11 3 -14 6 -6 3 7 2 16 -1 19 -3 4 -6 -2 -5 -13z"/>
<path d="M5025 3847 c-27 -76 -80 -179 -112 -217 -37 -44 -177 -148 -231 -171
-57 -25 -219 -79 -240 -80 -9 -1 10 -7 43 -14 265 -58 258 -57 313 -46 110 22
168 106 202 296 11 61 27 148 36 193 8 46 14 86 12 88 -2 2 -13 -20 -23 -49z"/>
<path d="M5740 3593 c-20 -61 -100 -251 -134 -314 -49 -91 -115 -177 -167
-215 -75 -55 -197 -95 -304 -101 -74 -5 -114 -1 -215 21 -93 20 -138 25 -177
20 -29 -3 -55 -10 -58 -14 -2 -4 26 -14 63 -23 37 -8 135 -39 217 -69 149 -52
151 -53 270 -53 111 0 124 2 176 27 73 36 160 118 204 192 40 69 78 179 99
291 8 44 22 122 32 173 17 97 15 130 -6 65z"/>
</g>
</svg>
